<svg id="visual" viewBox="0 0 1600 900" width="1600" height="900" xmlns="http://www.w3.org/2000/svg" xmlns:xlink="http://www.w3.org/1999/xlink" version="1.1"><rect x="0" y="0" width="1600" height="900" fill="#25323f"></rect><defs><linearGradient id="grad1_0" x1="43.8%" y1="100%" x2="100%" y2="0%"><stop offset="14.444444444444446%" stop-color="#25323f" stop-opacity="1"></stop><stop offset="85.55555555555554%" stop-color="#25323f" stop-opacity="1"></stop></linearGradient></defs><defs><linearGradient id="grad2_0" x1="0%" y1="100%" x2="56.3%" y2="0%"><stop offset="14.444444444444446%" stop-color="#25323f" stop-opacity="1"></stop><stop offset="85.55555555555554%" stop-color="#25323f" stop-opacity="1"></stop></linearGradient></defs><g transform="translate(1600, 900)"><path d="M-495 0C-470.6 -56.5 -446.1 -113 -426.8 -176.8C-407.6 -240.6 -393.4 -311.8 -350 -350C-306.6 -388.2 -233.9 -393.4 -170.7 -412.1C-107.5 -430.7 -53.7 -462.9 0 -495L0 0Z" fill="#fbb650"></path></g><g transform="translate(0, 0)"><path d="M495 0C466.5 55.6 438 111.2 418.5 173.4C399 235.5 388.6 304.3 350 350C311.5 395.8 244.8 418.5 181.8 438.8C118.8 459.2 59.4 477.1 0 495L0 0Z" fill="#fbb650"></path></g></svg>